<svg width="500" height="400" viewBox="0 0 500 400" xmlns="http://www.w3.org/2000/svg">
  <defs>
    <linearGradient id="bg" x1="0%" y1="0%" x2="100%" y2="100%">
      <stop offset="0%" style="stop-color:#00C853;stop-opacity:0.1" />
      <stop offset="100%" style="stop-color:#4CAF50;stop-opacity:0.2" />
    </linearGradient>
    <linearGradient id="card1" x1="0%" y1="0%" x2="100%" y2="100%">
      <stop offset="0%" style="stop-color:#ffffff;stop-opacity:0.9" />
      <stop offset="100%" style="stop-color:#f5f5f5;stop-opacity:0.8" />
    </linearGradient>
    <linearGradient id="card2" x1="0%" y1="0%" x2="100%" y2="100%">
      <stop offset="0%" style="stop-color:#00C853;stop-opacity:0.9" />
      <stop offset="100%" style="stop-color:#4CAF50;stop-opacity:0.8" />
    </linearGradient>
  </defs>
  
  <!-- Background -->
  <rect width="500" height="400" fill="url(#bg)" rx="16"/>
  
  <!-- Phone mockup -->
  <rect x="150" y="50" width="200" height="300" fill="url(#card1)" rx="20" stroke="rgba(0,0,0,0.1)" stroke-width="2"/>
  <rect x="160" y="80" width="180" height="240" fill="#f8f9fa" rx="8"/>
  
  <!-- App interface elements -->
  <!-- Header -->
  <rect x="170" y="90" width="160" height="30" fill="url(#card2)" rx="4"/>
  <circle cx="185" cy="105" r="8" fill="white" opacity="0.8"/>
  <rect x="200" y="100" width="80" height="10" fill="white" opacity="0.8" rx="2"/>
  
  <!-- Item cards -->
  <rect x="170" y="130" width="70" height="60" fill="white" rx="8" stroke="rgba(0,0,0,0.1)" stroke-width="1"/>
  <rect x="175" y="135" width="60" height="35" fill="#e8f5e8" rx="4"/>
  <rect x="175" y="175" width="40" height="8" fill="#00C853" rx="2"/>
  
  <rect x="250" y="130" width="70" height="60" fill="white" rx="8" stroke="rgba(0,0,0,0.1)" stroke-width="1"/>
  <rect x="255" y="135" width="60" height="35" fill="#e3f2fd" rx="4"/>
  <rect x="255" y="175" width="40" height="8" fill="#2196F3" rx="2"/>
  
  <rect x="170" y="200" width="70" height="60" fill="white" rx="8" stroke="rgba(0,0,0,0.1)" stroke-width="1"/>
  <rect x="175" y="205" width="60" height="35" fill="#fff3e0" rx="4"/>
  <rect x="175" y="245" width="40" height="8" fill="#FF9800" rx="2"/>
  
  <rect x="250" y="200" width="70" height="60" fill="white" rx="8" stroke="rgba(0,0,0,0.1)" stroke-width="1"/>
  <rect x="255" y="205" width="60" height="35" fill="#f3e5f5" rx="4"/>
  <rect x="255" y="245" width="40" height="8" fill="#9C27B0" rx="2"/>
  
  <!-- Floating icons -->
  <circle cx="80" cy="120" r="25" fill="rgba(255,255,255,0.2)" stroke="rgba(255,255,255,0.3)" stroke-width="2"/>
  <path d="M70 115 L85 105 L85 125 Z M85 115 L90 120 L85 125" fill="none" stroke="white" stroke-width="2" stroke-linecap="round"/>
  
  <circle cx="420" cy="180" r="20" fill="rgba(255,255,255,0.2)" stroke="rgba(255,255,255,0.3)" stroke-width="2"/>
  <circle cx="420" cy="180" r="8" fill="none" stroke="white" stroke-width="2"/>
  <path d="M415 175 L425 185 M425 175 L415 185" stroke="white" stroke-width="2" stroke-linecap="round"/>
  
  <circle cx="100" cy="280" r="18" fill="rgba(255,255,255,0.2)" stroke="rgba(255,255,255,0.3)" stroke-width="2"/>
  <path d="M92 280 Q100 272 108 280 Q100 288 92 280" fill="none" stroke="white" stroke-width="2"/>
  
  <!-- Connecting lines -->
  <path d="M105 120 Q130 140 150 160" fill="none" stroke="rgba(255,255,255,0.3)" stroke-width="2" stroke-dasharray="5,5"/>
  <path d="M400 180 Q380 200 350 220" fill="none" stroke="rgba(255,255,255,0.3)" stroke-width="2" stroke-dasharray="5,5"/>
</svg>